<svg width="19" height="24" viewBox="0 0 19 24" fill="none" xmlns="http://www.w3.org/2000/svg">
<path d="M15.8682 12.3968C15.901 15.9281 18.966 17.1032 19 17.1182C18.9741 17.201 18.5103 18.7928 17.3852 20.437C16.4126 21.8585 15.4032 23.2747 13.8131 23.3041C12.2507 23.3328 11.7483 22.3775 9.96199 22.3775C8.17623 22.3775 7.61803 23.2747 6.13901 23.3328C4.60416 23.3909 3.43539 21.7957 2.45474 20.3794C0.450901 17.4824 -1.08045 12.1931 0.975766 8.62277C1.99725 6.84972 3.82272 5.72694 5.8041 5.69815C7.31128 5.6694 8.73388 6.71213 9.65524 6.71213C10.576 6.71213 12.3048 5.45816 14.1222 5.64232C14.883 5.67399 17.0186 5.94965 18.39 7.95695C18.2795 8.02545 15.8417 9.44458 15.8682 12.3968ZM12.9318 3.72568C13.7467 2.73933 14.2951 1.36623 14.1455 0C12.9709 0.0472068 11.5506 0.782695 10.7081 1.76851C9.95311 2.6415 9.29187 4.03876 9.47029 5.37795C10.7795 5.47924 12.1169 4.71267 12.9318 3.72568Z" fill="black"/>
</svg>
